<svg xmlns="http://www.w3.org/2000/svg" viewBox="0 0 64 64" width="64" height="64">
  <defs>
    <linearGradient id="inkGrad" x1="0%" y1="0%" x2="100%" y2="100%">
      <stop offset="0%" stop-color="#6757F3"/>
      <stop offset="100%" stop-color="#4B3BCA"/>
    </linearGradient>
    <filter id="subtle-shadow" x="-10%" y="-10%" width="120%" height="120%">
      <feDropShadow dx="0" dy="2" stdDeviation="1.5" flood-color="#000000" flood-opacity="0.2"/>
    </filter>
  </defs>
  <!-- Background squircle matching InkForge brand -->
  <rect width="64" height="64" rx="15" fill="url(#inkGrad)"/>
  
  <!-- Pen Nib Icon (InkForge Logo) -->
  <g fill="#FFFFFF" filter="url(#subtle-shadow)">
    <path d="M47.2 13.8c-2.4-2.4-6.3-2.4-8.7 0L35.8 16.5l11.7 11.7 2.7-2.7c2.4-2.4 2.4-6.3 0-8.7l-3-3zM32.8 19.5L18.4 33.9c-.8.8-1.4 1.8-1.7 2.9l-3.2 10.9c-.6 2 1.3 3.9 3.3 3.3l10.9-3.2c1.1-.3 2.1-.9 2.9-1.7l14.4-14.4-12.2-12.2zM21.2 42.8c-.9.9-2.3.9-3.2 0-.9-.9-.9-2.3 0-3.2.9-.9 2.3-.9 3.2 0 .9.9.9 2.3 0 3.2z"/>
    <!-- Ink Nib Detail Line -->
    <path d="M21.5 42.5 L30 34" stroke="#4B3BCA" stroke-width="1.6" stroke-linecap="round"/>
  </g>
</svg>
